<svg width="330" height="176" viewBox="0 0 330 176" fill="none" xmlns="http://www.w3.org/2000/svg">
<path d="M132.027 44.2157H88.2818V0.470581L132.027 44.2157Z" fill="white"/>
<path d="M44.3596 175.805L0.525879 131.972V88.138H44.3596V131.972H88.1933V175.805H44.3596Z" fill="white"/>
<path d="M132.027 131.972V44.3042V44.2157L44.3596 44.3042V88.0494H88.1933V131.972H132.027Z" fill="white"/>
<path d="M184.008 73.1725V52.0084H188.789C194.368 52.0084 198.973 55.2849 198.973 62.6347C198.973 69.9846 194.368 73.1725 188.789 73.1725H184.008ZM189.055 80.8767C200.124 80.8767 207.474 73.881 207.474 62.6347C207.474 51.3885 200.124 44.3043 189.144 44.3043H175.861V80.8767H189.055ZM220.668 80.8767V55.2849H212.876V80.8767H220.668ZM212.167 47.4036C212.167 49.9717 214.204 52.0084 216.684 52.0084C219.252 52.0084 221.288 49.9717 221.288 47.4036C221.288 44.8356 219.252 42.7989 216.684 42.7989C214.204 42.8874 212.167 44.9242 212.167 47.4036ZM225.716 82.2935C226.424 86.8983 231.118 91.4145 238.468 91.4145C248.031 91.4145 252.193 85.0386 252.193 77.6887V55.2849H244.755V58.03C244.046 56.7017 241.833 54.8421 237.671 54.8421C230.675 54.8421 225.805 60.598 225.805 67.3281C225.805 74.4123 230.941 79.814 237.671 79.814C241.39 79.814 243.604 78.3086 244.489 76.8918V78.043C244.489 82.6477 242.098 84.5959 238.113 84.5959C235.191 84.5959 233.154 82.8248 232.623 80.3453L225.716 82.2935ZM238.999 72.9954C235.811 72.9954 233.509 70.8702 233.509 67.3281C233.509 63.7859 236.077 61.6607 238.999 61.6607C241.921 61.6607 244.489 63.7859 244.489 67.3281C244.489 70.8702 242.187 72.9954 238.999 72.9954ZM266.627 80.8767V55.2849H258.835V80.8767H266.627ZM258.126 47.4036C258.126 49.9717 260.163 52.0084 262.643 52.0084C265.211 52.0084 267.247 49.9717 267.247 47.4036C267.247 44.8356 265.211 42.7989 262.643 42.7989C260.163 42.8874 258.126 44.9242 258.126 47.4036ZM282.833 47.7579H275.837V51.0343C275.837 53.4252 274.509 55.1963 271.852 55.1963H270.524V62.0149H275.04V73.084C275.04 78.2201 278.316 81.3194 283.63 81.3194C286.109 81.3194 287.349 80.7881 287.703 80.611V74.1466C287.26 74.2352 286.463 74.4123 285.666 74.4123C283.984 74.4123 282.833 73.881 282.833 71.7557V62.1034H287.792V55.2849H282.833V47.7579ZM292.042 73.7924C292.042 77.8659 295.319 81.5851 300.897 81.5851C304.262 81.5851 306.742 80.1682 308.07 77.9544C308.07 79.7255 308.247 80.611 308.336 80.8767H315.42C315.332 80.611 315.154 78.9285 315.154 76.8918V64.4058C315.154 59.1812 312.144 54.4879 303.82 54.4879C296.293 54.4879 292.928 59.3583 292.573 62.989L299.392 64.4058C299.569 62.4576 301.075 60.6866 303.731 60.6866C306.211 60.6866 307.45 62.0149 307.45 63.4317C307.45 64.3173 307.008 64.9371 305.591 65.2028L299.569 66.0883C295.407 66.7082 292.042 69.2762 292.042 73.7924ZM302.846 75.9177C300.72 75.9177 299.835 74.5894 299.835 73.2611C299.835 71.49 301.075 70.6931 302.757 70.4274L307.627 69.6304V70.7816C307.539 74.7665 305.148 75.9177 302.846 75.9177ZM329.589 80.8767V43.5959H321.796V80.8767H329.589Z" fill="white"/>
<path d="M199.77 131.972V124.179H184.008V95.3994H175.861V131.972H199.77ZM212.345 131.972V106.38H204.552V131.972H212.345ZM203.843 98.4987C203.843 101.067 205.88 103.103 208.36 103.103C210.928 103.103 212.964 101.067 212.964 98.4987C212.964 95.9307 210.928 93.894 208.36 93.894C205.969 93.9825 203.843 96.0192 203.843 98.4987ZM227.044 131.972V94.691H219.252V131.972H227.044Z" fill="white"/>
</svg>
