
<svg xmlns="http://www.w3.org/2000/svg" width="126" height="67" fill="none"><path fill="#fff" d="M50.25 16.716H33.534V0L50.25 16.716ZM16.75 67 0 50.25V33.5h16.75v16.75H33.5V67H16.75ZM50.25 50.25V16.716l-33.5.034v16.716H33.5V50.25h16.75ZM70.113 27.781v-8.087h1.827c2.132 0 3.892 1.252 3.892 4.06 0 2.81-1.76 4.027-3.892 4.027h-1.827Zm1.929 2.944c4.23 0 7.038-2.673 7.038-6.97 0-4.298-2.808-7.005-7.004-7.005H67v13.975h5.042Zm12.08 0v-9.779h-2.978v9.78h2.978Zm-3.248-12.79c0 .98.778 1.759 1.726 1.759.98 0 1.76-.778 1.76-1.76 0-.98-.78-1.76-1.76-1.76-.948.035-1.726.813-1.726 1.76Zm5.177 13.332c.27 1.76 2.064 3.485 4.873 3.485 3.654 0 5.245-2.436 5.245-5.245v-8.561h-2.843v1.049c-.27-.508-1.116-1.218-2.707-1.218-2.673 0-4.534 2.2-4.534 4.771 0 2.707 1.963 4.771 4.534 4.771 1.421 0 2.267-.575 2.606-1.116v.44c0 1.76-.914 2.504-2.437 2.504-1.116 0-1.895-.677-2.098-1.625l-2.639.745Zm5.076-3.553c-1.218 0-2.098-.812-2.098-2.166 0-1.353.981-2.166 2.098-2.166 1.116 0 2.098.813 2.098 2.166 0 1.354-.88 2.166-2.098 2.166Zm10.557 3.011v-9.779h-2.977v9.78h2.977Zm-3.248-12.79c0 .98.778 1.759 1.726 1.759.981 0 1.759-.778 1.759-1.76 0-.98-.778-1.76-1.759-1.76-.948.035-1.726.813-1.726 1.76Zm9.441.135h-2.673v1.252c0 .913-.508 1.59-1.523 1.59h-.508v2.606h1.726v4.23c0 1.962 1.252 3.146 3.282 3.146.948 0 1.422-.202 1.557-.27v-2.47c-.169.033-.474.101-.778.101-.643 0-1.083-.203-1.083-1.015v-3.688h1.895v-2.606h-1.895V18.07Zm3.519 9.948c0 1.557 1.252 2.978 3.384 2.978 1.286 0 2.233-.541 2.741-1.387 0 .676.067 1.015.101 1.116h2.707c-.034-.101-.101-.744-.101-1.522V24.43c0-1.996-1.151-3.79-4.332-3.79-2.876 0-4.162 1.862-4.297 3.249l2.606.541c.067-.744.642-1.42 1.658-1.42.947 0 1.421.507 1.421 1.048 0 .338-.169.575-.711.677l-2.301.338c-1.59.237-2.876 1.218-2.876 2.944Zm4.128.812c-.812 0-1.15-.507-1.15-1.015 0-.677.473-.981 1.116-1.083l1.862-.304v.44c-.034 1.523-.948 1.962-1.828 1.962Zm10.219 1.895V16.48h-2.977v14.246h2.977ZM76.136 50.25v-2.978h-6.023V36.275H67V50.25h9.136Zm4.805 0v-9.78h-2.977v9.78h2.977Zm-3.248-12.79c0 .98.778 1.759 1.726 1.759.981 0 1.76-.779 1.76-1.76s-.779-1.76-1.76-1.76c-.914.034-1.726.813-1.726 1.76Zm8.866 12.79V36.004H83.58V50.25h2.978Z"/></svg>